<?xml version="1.0" standalone="no"?>
<!DOCTYPE svg PUBLIC "-//W3C//DTD SVG 20010904//EN"
 "http://www.w3.org/TR/2001/REC-SVG-20010904/DTD/svg10.dtd">
<svg version="1.0" xmlns="http://www.w3.org/2000/svg"
 width="76.000000pt" height="76.000000pt" viewBox="0 0 76.000000 76.000000"
 preserveAspectRatio="xMidYMid meet">
<metadata>
Created by potrace 1.14, written by Peter Selinger 2001-2017
</metadata>
<g transform="translate(0.000000,76.000000) scale(0.100000,-0.100000)"
fill="#000000" stroke="none">
<path d="M0 380 l0 -380 380 0 380 0 0 380 0 380 -380 0 -380 0 0 -380z m220
95 l152 -216 57 78 c31 43 101 140 156 216 54 75 101 137 105 137 9 0 12 -592
4 -614 -5 -12 -20 -16 -65 -16 l-59 0 0 147 0 146 -97 -141 c-54 -77 -101
-138 -105 -135 -5 2 -48 60 -97 129 -49 69 -92 121 -94 117 -3 -5 -5 -60 -5
-123 0 -63 -1 -121 -1 -127 -1 -9 -19 -13 -56 -13 l-55 0 0 315 c0 173 2 315
4 315 2 0 72 -97 156 -215z"/>
</g>
</svg>
